<svg width="26" height="26" viewBox="0 0 26 26" fill="none" xmlns="http://www.w3.org/2000/svg">
<g clip-path="url(#clip0_4_10)">
<path d="M21.3756 0H1.07577C0.481001 0 0 0.481001 0 1.07577V15.6695C0 16.2642 0.481001 16.7452 1.07577 16.7452H20.1462C22.138 16.7452 23.8285 18.3738 23.7906 20.3657C23.7547 22.2957 22.1779 23.8505 20.24 23.8505H1.07577C0.481001 23.8505 0 24.3315 0 24.9262C0 25.521 0.481001 26.002 1.07577 26.002H21.3756C23.9303 26.002 26.002 23.9303 26.002 21.3756V4.62639C26.002 2.0717 23.9303 0 21.3756 0Z" fill="#4D7C0F"/>
<path d="M19.4237 22.8305L18.1902 22.122C17.9826 22.0023 17.7252 22.0023 17.5176 22.122L16.2842 22.8305C15.8351 23.09 15.2723 22.7647 15.2723 22.2458V18.7111C15.2723 18.3379 15.5737 18.0365 15.9469 18.0365H19.757C20.1302 18.0365 20.4316 18.3379 20.4316 18.7111V22.2458C20.4316 22.7647 19.8707 23.09 19.4197 22.8305H19.4237Z" fill="#4D7C0F"/>
</g>
<defs>
<clipPath id="clip0_4_10">
<rect width="26" height="26" fill="white"/>
</clipPath>
</defs>
</svg>
